<?xml version="1.0" encoding="UTF-8" standalone="no"?>
<!-- Created with Inkscape (http://www.inkscape.org/) -->

<svg
   xmlns:dc="http://purl.org/dc/elements/1.1/"
   xmlns:cc="http://creativecommons.org/ns#"
   xmlns:rdf="http://www.w3.org/1999/02/22-rdf-syntax-ns#"
   xmlns:svg="http://www.w3.org/2000/svg"
   xmlns="http://www.w3.org/2000/svg"
   xmlns:sodipodi="http://sodipodi.sourceforge.net/DTD/sodipodi-0.dtd"
   xmlns:inkscape="http://www.inkscape.org/namespaces/inkscape"
   width="4.6820827mm"
   height="28.421997mm"
   viewBox="0 0 4.6820826 28.421997"
   version="1.1"
   id="svg7784"
   inkscape:version="0.92.2 2405546, 2018-03-11"
   sodipodi:docname="ganssleio_rotated.svg">
  <defs
     id="defs7778">
    <inkscape:path-effect
       effect="bspline"
       id="path-effect5420"
       is_visible="true"
       weight="33.333333"
       steps="2"
       helper_size="0"
       apply_no_weight="true"
       apply_with_weight="true"
       only_selected="false" />
  </defs>
  <sodipodi:namedview
     id="base"
     pagecolor="#ffffff"
     bordercolor="#666666"
     borderopacity="1.0"
     inkscape:pageopacity="0.0"
     inkscape:pageshadow="2"
     inkscape:zoom="22.4"
     inkscape:cx="-11.835927"
     inkscape:cy="67.763535"
     inkscape:document-units="mm"
     inkscape:current-layer="text5054"
     showgrid="false"
     fit-margin-top="0.2"
     fit-margin-left="0"
     fit-margin-right="0"
     fit-margin-bottom="0.2"
     inkscape:window-width="1920"
     inkscape:window-height="1028"
     inkscape:window-x="0"
     inkscape:window-y="0"
     inkscape:window-maximized="1" />
  <metadata
     id="metadata7781">
    <rdf:RDF>
      <cc:Work
         rdf:about="">
        <dc:format>image/svg+xml</dc:format>
        <dc:type
           rdf:resource="http://purl.org/dc/dcmitype/StillImage" />
        <dc:title />
      </cc:Work>
    </rdf:RDF>
  </metadata>
  <g
     inkscape:label="Layer 1"
     inkscape:groupmode="layer"
     id="layer1"
     transform="translate(-108.57219,-147.26917)">
    <g
       id="text5054"
       style="font-style:normal;font-variant:normal;font-weight:300;font-stretch:normal;font-size:4.04292917px;line-height:125%;font-family:'ITC Avant Garde Gothic Std';-inkscape-font-specification:'ITC Avant Garde Gothic Std Light';font-variant-ligatures:normal;font-variant-position:normal;font-variant-caps:normal;font-variant-numeric:normal;font-variant-alternates:normal;font-feature-settings:normal;text-indent:0;text-align:start;text-decoration:none;text-decoration-line:none;text-decoration-style:solid;text-decoration-color:#000000;letter-spacing:0px;word-spacing:0px;text-transform:none;writing-mode:lr-tb;direction:ltr;text-orientation:mixed;dominant-baseline:auto;baseline-shift:baseline;text-anchor:start;white-space:normal;shape-padding:0;opacity:1;vector-effect:none;fill:#000000;fill-opacity:1;stroke:none;stroke-width:0.23324595px;stroke-linecap:butt;stroke-linejoin:miter;stroke-miterlimit:4;stroke-dasharray:none;stroke-dashoffset:0;stroke-opacity:1"
       aria-label="@pganssle"
       transform="matrix(0,-1.2078369,1.2078369,0,-90.364341,303.97388)">
      <g
         aria-label="ganssle.io"
         style="font-style:normal;font-variant:normal;font-weight:normal;font-stretch:normal;font-size:8.76222038px;line-height:125%;font-family:'Frutiger Next Pro';-inkscape-font-specification:'Frutiger Next Pro';letter-spacing:0px;word-spacing:0px;fill:#000000;fill-opacity:1;stroke:none;stroke-width:0.2190555px;stroke-linecap:butt;stroke-linejoin:miter;stroke-opacity:1"
         id="text1061">
        <path
           d="m 111.32284,168.47081 c 0.24943,0.0777 0.51113,0.1104 0.77283,0.1104 0.69105,0 1.09995,-0.35574 1.09995,-1.05906 v -1.92185 h -0.54793 v 0.33939 c -0.12676,-0.2617 -0.36801,-0.38028 -0.65016,-0.38028 -0.60518,0 -0.84234,0.51113 -0.84234,1.05906 0,0.5234 0.23716,1.03453 0.83416,1.03453 0.2617,0 0.49887,-0.12676 0.64198,-0.35166 v 0.22081 c 0,0.41299 -0.20445,0.6706 -0.65833,0.6706 -0.2249,0 -0.43344,-0.0491 -0.62563,-0.15129 z m 0.51931,-1.42299 c -0.0654,-0.12676 -0.0818,-0.28214 -0.0818,-0.42526 0,-0.29441 0.0654,-0.66652 0.43752,-0.66652 0.35575,0 0.44571,0.38029 0.44571,0.66652 0,0.27805 -0.0981,0.63789 -0.44571,0.63789 -0.17991,0 -0.29032,-0.094 -0.35574,-0.21263 z"
           style="font-style:normal;font-variant:normal;font-weight:bold;font-stretch:normal;font-size:4.08905029px;font-family:'Frutiger Next Pro';-inkscape-font-specification:'Frutiger Next Pro Bold';stroke-width:0.2190555px"
           id="path826" />
        <path
           d="m 114.91181,166.67572 v 0.0859 c 0,0.30259 -0.15947,0.58473 -0.50295,0.58473 -0.17583,0 -0.30259,-0.10223 -0.30259,-0.30259 0,-0.30668 0.35983,-0.36801 0.69105,-0.36801 z m 0.56429,0.97728 c -0.0164,-0.14312 -0.0204,-0.27397 -0.0204,-0.48251 v -0.81372 c 0,-0.60109 -0.39663,-0.79736 -0.94866,-0.79736 -0.22898,0 -0.49477,0.0491 -0.7074,0.13493 l 0.0245,0.3762 c 0.19219,-0.10223 0.41709,-0.15539 0.60109,-0.15539 0.31077,0 0.4866,0.11041 0.4866,0.40073 v 0.0695 c -0.0777,-0.004 -0.16765,-0.008 -0.24534,-0.008 -0.57656,0 -1.09996,0.1472 -1.09996,0.69105 0,0.4089 0.31895,0.62971 0.69514,0.62971 0.31077,0 0.52749,-0.12267 0.67061,-0.34757 l 0.0123,0.30259 z"
           style="font-style:normal;font-variant:normal;font-weight:bold;font-stretch:normal;font-size:4.08905029px;font-family:'Frutiger Next Pro';-inkscape-font-specification:'Frutiger Next Pro Bold';stroke-width:0.2190555px"
           id="path828" />
        <path
           d="m 116.5181,167.653 v -1.13267 c 0,-0.26987 0.09,-0.55611 0.40891,-0.55611 0.30668,0 0.34348,0.24535 0.34348,0.49069 v 1.19809 h 0.56429 v -1.32894 c 0,-0.47024 -0.20037,-0.76465 -0.69514,-0.76465 -0.29032,0 -0.53158,0.12267 -0.66652,0.38437 l -0.008,-0.34348 h -0.53158 c 0.0164,0.15129 0.0204,0.30668 0.0204,0.45797 v 1.59473 z"
           style="font-style:normal;font-variant:normal;font-weight:bold;font-stretch:normal;font-size:4.08905029px;font-family:'Frutiger Next Pro';-inkscape-font-specification:'Frutiger Next Pro Bold';stroke-width:0.2190555px"
           id="path830" />
        <path
           d="m 118.27205,167.59984 c 0.19628,0.0695 0.38846,0.0981 0.62154,0.0981 0.41299,0 0.8587,-0.17174 0.8587,-0.66652 0,-0.71149 -0.94866,-0.55611 -0.94866,-0.87914 0,-0.17583 0.19218,-0.20854 0.3353,-0.20854 0.17583,0 0.34348,0.0327 0.50704,0.0981 l 0.0245,-0.4089 c -0.15948,-0.045 -0.36393,-0.0777 -0.56429,-0.0777 -0.3762,0 -0.84644,0.16356 -0.84644,0.62562 0,0.66652 0.95684,0.53976 0.95684,0.89141 0,0.17583 -0.13903,0.23717 -0.35575,0.23717 -0.19218,0 -0.38437,-0.045 -0.56428,-0.13903 z"
           style="font-style:normal;font-variant:normal;font-weight:bold;font-stretch:normal;font-size:4.08905029px;font-family:'Frutiger Next Pro';-inkscape-font-specification:'Frutiger Next Pro Bold';stroke-width:0.2190555px"
           id="path832" />
        <path
           d="m 120.09296,167.59984 c 0.19627,0.0695 0.38846,0.0981 0.62153,0.0981 0.413,0 0.8587,-0.17174 0.8587,-0.66652 0,-0.71149 -0.94866,-0.55611 -0.94866,-0.87914 0,-0.17583 0.19219,-0.20854 0.33531,-0.20854 0.17582,0 0.34348,0.0327 0.50704,0.0981 l 0.0245,-0.4089 c -0.15947,-0.045 -0.36392,-0.0777 -0.56429,-0.0777 -0.37619,0 -0.84643,0.16356 -0.84643,0.62562 0,0.66652 0.95684,0.53976 0.95684,0.89141 0,0.17583 -0.13903,0.23717 -0.35575,0.23717 -0.19219,0 -0.38437,-0.045 -0.56429,-0.13903 z"
           style="font-style:normal;font-variant:normal;font-weight:bold;font-stretch:normal;font-size:4.08905029px;font-family:'Frutiger Next Pro';-inkscape-font-specification:'Frutiger Next Pro Bold';stroke-width:0.2190555px"
           id="path834" />
        <path
           d="m 122.55584,167.653 v -2.94821 h -0.56429 v 2.94821 z"
           style="font-style:normal;font-variant:normal;font-weight:bold;font-stretch:normal;font-size:4.08905029px;font-family:'Frutiger Next Pro';-inkscape-font-specification:'Frutiger Next Pro Bold';stroke-width:0.2190555px"
           id="path836" />
        <path
           d="m 123.50316,166.43037 c 0.0123,-0.2617 0.15947,-0.53157 0.47024,-0.53157 0.31077,0 0.39255,0.27396 0.39255,0.53157 z m 1.36983,0.31895 v -0.13494 c 0,-0.62153 -0.24534,-1.05497 -0.90368,-1.05497 -0.60518,0 -1.01817,0.44979 -1.01817,1.05906 0,0.68287 0.40481,1.07951 1.16129,1.07951 0.2249,0 0.49068,-0.0491 0.65425,-0.11858 l -0.0245,-0.39255 c -0.14311,0.0818 -0.36392,0.13494 -0.56429,0.13494 -0.43752,0 -0.66242,-0.21672 -0.67469,-0.57247 z"
           style="font-style:normal;font-variant:normal;font-weight:bold;font-stretch:normal;font-size:4.08905029px;font-family:'Frutiger Next Pro';-inkscape-font-specification:'Frutiger Next Pro Bold';stroke-width:0.2190555px"
           id="path838" />
        <path
           d="m 125.87545,167.653 v -0.49069 h -0.54793 v 0.49069 z"
           style="font-style:normal;font-variant:normal;font-weight:bold;font-stretch:normal;font-size:4.08905029px;font-family:'Frutiger Next Pro';-inkscape-font-specification:'Frutiger Next Pro Bold';stroke-width:0.2190555px"
           id="path840" />
        <path
           d="m 127.02824,165.22001 v -0.45388 h -0.56429 v 0.45388 z m 0,2.43299 v -2.0527 h -0.56429 v 2.0527 z"
           style="font-style:normal;font-variant:normal;font-weight:bold;font-stretch:normal;font-size:4.08905029px;font-family:'Frutiger Next Pro';-inkscape-font-specification:'Frutiger Next Pro Bold';stroke-width:0.2190555px"
           id="path842" />
        <path
           d="m 128.04507,167.62438 c 0.13494,0.0491 0.28624,0.0736 0.45389,0.0736 0.6706,0 1.07542,-0.41708 1.07542,-1.07951 0,-0.68287 -0.40891,-1.05906 -1.07542,-1.05906 -0.62972,0 -1.07542,0.38846 -1.07542,1.05906 0,0.49478 0.22081,0.85052 0.62153,1.00591 z m 0.0859,-0.53158 c -0.0695,-0.13085 -0.10222,-0.30668 -0.10222,-0.47433 0,-0.31077 0.1104,-0.67469 0.47024,-0.67469 0.36801,0 0.47024,0.35983 0.47024,0.67469 0,0.34757 -0.11041,0.69514 -0.47024,0.69514 -0.17583,0 -0.29032,-0.09 -0.36802,-0.22081 z"
           style="font-style:normal;font-variant:normal;font-weight:bold;font-stretch:normal;font-size:4.08905029px;font-family:'Frutiger Next Pro';-inkscape-font-specification:'Frutiger Next Pro Bold';stroke-width:0.2190555px"
           id="path844" />
      </g>
      <path
         style="fill:none;fill-rule:evenodd;stroke:#000000;stroke-width:0.2190555px;stroke-linecap:butt;stroke-linejoin:miter;stroke-opacity:1"
         d="m 129.43103,168.11709 c -5.29205,0 -10.58432,0 -15.8768,0"
         id="path5418"
         inkscape:connector-curvature="0"
         inkscape:path-effect="#path-effect5420"
         inkscape:original-d="m 129.43103,168.11709 c -5.29205,2.2e-4 -10.58432,2.2e-4 -15.8768,0" />
      <path
         inkscape:connector-curvature="0"
         d="m 108.78499,167.16442 c -0.4414,0.44095 -1.1491,0.4349 -1.58375,0.003 -8.6e-4,-0.002 -0.003,-0.002 -0.003,-0.003 l -0.49596,-0.49596 c -0.43743,-0.43744 -0.43738,-1.14912 1e-5,-1.58648 0.43735,-0.43743 1.14912,-0.43744 1.58648,0 l 0.27384,0.27385 c 0.0726,0.0726 0.0244,0.19771 -0.0783,0.20144 -0.13079,0.005 -0.26218,0.0283 -0.3891,0.0715 -0.0431,0.0142 -0.0905,0.004 -0.1226,-0.0279 l -0.0966,-0.0966 c -0.20684,-0.20685 -0.54364,-0.21333 -0.75251,-0.009 -0.21091,0.20683 -0.21217,0.54679 -0.003,0.7552 l 0.4959,0.49596 c 0.20805,0.20806 0.54435,0.2072 0.75153,1e-5 0.0272,-0.0273 0.0485,-0.0548 0.0633,-0.0763 a 0.11835882,0.11835882 0 0 1 0.093,-0.0513 c 0.078,-0.003 0.15836,0.0247 0.21999,0.0863 l 0.15539,0.15538 c 0.0407,0.0407 0.0458,0.10465 0.0128,0.15191 a 1.1253719,1.1253719 0 0 1 -0.12693,0.15147 z m 1.0402,1.04015 c 0.43738,-0.43737 0.43744,-1.14905 10e-6,-1.58649 l -0.49597,-0.49596 c -8.7e-4,-0.002 -0.003,-0.002 -0.003,-0.003 -0.43465,-0.43224 -1.14234,-0.4383 -1.58375,0.003 a 1.1251652,1.1251652 0 0 0 -0.12691,0.15146 c -0.0329,0.0472 -0.028,0.11118 0.0128,0.15192 l 0.15538,0.15537 c 0.0615,0.0616 0.14201,0.0893 0.21999,0.0863 a 0.11835882,0.11835882 0 0 0 0.093,-0.0513 c 0.0148,-0.0215 0.036,-0.049 0.0633,-0.0763 0.20719,-0.20719 0.54348,-0.20808 0.75154,0 l 0.4959,0.49596 c 0.2084,0.20841 0.20714,0.54837 -0.003,0.7552 -0.20886,0.20481 -0.54565,0.19834 -0.7525,-0.009 l -0.0966,-0.0966 c -0.0322,-0.0322 -0.0797,-0.0426 -0.1226,-0.0279 -0.12689,0.0433 -0.25836,0.0666 -0.38911,0.0715 -0.10262,0.003 -0.15089,0.12882 -0.0783,0.20143 l 0.27385,0.27386 c 0.43735,0.43744 1.14912,0.43744 1.58648,10e-6 z"
         id="path22528"
         style="stroke-width:0.00172144px" />
    </g>
  </g>
</svg>
