<?xml version="1.0" encoding="UTF-8" standalone="no"?>
<svg
   xmlns:dc="http://purl.org/dc/elements/1.1/"
   xmlns:cc="http://creativecommons.org/ns#"
   xmlns:rdf="http://www.w3.org/1999/02/22-rdf-syntax-ns#"
   xmlns:svg="http://www.w3.org/2000/svg"
   xmlns="http://www.w3.org/2000/svg"
   id="svg7784"
   version="1.1"
   viewBox="0 0 5.23493 38.66724"
   height="38.66724mm"
   width="5.23493mm">
  <defs
     id="defs7778" />
  <metadata
     id="metadata7781">
    <rdf:RDF>
      <cc:Work
         rdf:about="">
        <dc:format>image/svg+xml</dc:format>
        <dc:type
           rdf:resource="http://purl.org/dc/dcmitype/StillImage" />
        <dc:title></dc:title>
      </cc:Work>
    </rdf:RDF>
  </metadata>
  <g
     transform="translate(-108.21692,-146.79371)"
     id="layer1">
    <g
       transform="matrix(0,-1.2078369,1.2078369,0,-90.364341,303.97388)"
       aria-label="@pganssle"
       style="font-style:normal;font-variant:normal;font-weight:300;font-stretch:normal;font-size:4.04292917px;line-height:125%;font-family:'ITC Avant Garde Gothic Std';-inkscape-font-specification:'ITC Avant Garde Gothic Std Light';font-variant-ligatures:normal;font-variant-position:normal;font-variant-caps:normal;font-variant-numeric:normal;font-variant-alternates:normal;font-feature-settings:normal;text-indent:0;text-align:start;text-decoration:none;text-decoration-line:none;text-decoration-style:solid;text-decoration-color:#000000;letter-spacing:0px;word-spacing:0px;text-transform:none;writing-mode:lr-tb;direction:ltr;text-orientation:mixed;dominant-baseline:auto;baseline-shift:baseline;text-anchor:start;white-space:normal;shape-padding:0;opacity:1;vector-effect:none;fill:#000000;fill-opacity:1;stroke:none;stroke-width:0.23324595px;stroke-linecap:butt;stroke-linejoin:miter;stroke-miterlimit:4;stroke-dasharray:none;stroke-dashoffset:0;stroke-opacity:1"
       id="text5054">
      <path
         d="m 112.00697,166.62986 c -0.0849,0.38811 -0.29108,0.69132 -0.55791,0.69132 -0.19001,0 -0.29917,-0.13746 -0.29917,-0.38407 0,-0.4528 0.29513,-1.00262 0.79644,-1.00262 0.0768,0 0.12533,0.004 0.20618,0.0243 z m 0.95411,1.33009 c -0.40428,0.16575 -0.75601,0.23852 -1.19264,0.23852 -0.9824,0 -1.58074,-0.54173 -1.58074,-1.45137 0,-1.02284 0.69941,-1.70204 1.63734,-1.70204 0.77623,0 1.38265,0.41642 1.38265,1.27754 0,0.64685 -0.29108,1.03092 -0.59834,1.03092 -0.15767,0 -0.23044,-0.10107 -0.23044,-0.26278 0,-0.0485 0.008,-0.13341 0.0202,-0.19406 l 0.26682,-1.22498 c -0.2264,-0.0687 -0.46492,-0.10107 -0.66302,-0.10107 -0.81261,0 -1.32605,0.62664 -1.32605,1.41499 0,0.43663 0.25874,0.69942 0.6226,0.69942 0.30725,0 0.52152,-0.14555 0.69941,-0.46493 0.0364,0.32747 0.24257,0.46493 0.52961,0.46493 0.59834,0 1.0956,-0.57409 1.0956,-1.38265 0,-1.03497 -0.76813,-1.61714 -1.76671,-1.61714 -1.21285,0 -2.10228,0.8207 -2.10228,2.06589 0,1.11582 0.78027,1.80715 1.96886,1.80715 0.48919,0 0.86921,-0.0728 1.2735,-0.21832 z"
         style="font-style:normal;font-variant:normal;font-weight:bold;font-stretch:normal;font-size:4.04283333px;line-height:125%;font-family:'Frutiger Next Pro';-inkscape-font-specification:'Frutiger Next Pro, Bold';font-variant-ligatures:normal;font-variant-position:normal;font-variant-caps:normal;font-variant-numeric:normal;font-variant-alternates:normal;font-feature-settings:normal;text-indent:0;text-align:start;text-decoration:none;text-decoration-line:none;text-decoration-style:solid;text-decoration-color:#000000;letter-spacing:0px;word-spacing:0px;text-transform:none;writing-mode:lr-tb;direction:ltr;text-orientation:mixed;dominant-baseline:auto;text-anchor:start;white-space:normal;shape-padding:0;vector-effect:none;fill:#000000;fill-opacity:1;stroke:none;stroke-width:0.23324595px;stroke-linecap:butt;stroke-linejoin:miter;stroke-miterlimit:4;stroke-dasharray:none;stroke-dashoffset:0;stroke-opacity:1"
         id="path8365" />
      <path
         d="m 114.67208,168.51382 v -1.20073 c 0.10107,0.24257 0.34364,0.37195 0.60239,0.37195 0.62259,0 0.85303,-0.52153 0.85303,-1.06731 0,-0.54174 -0.2264,-1.0471 -0.84091,-1.0471 -0.27087,0 -0.53769,0.13746 -0.65089,0.38407 l -0.0121,-0.34364 h -0.52961 c 0.0121,0.17384 0.0202,0.34769 0.0202,0.59026 v 2.3125 z m 0.0728,-1.45138 c -0.0647,-0.13341 -0.0889,-0.30321 -0.0889,-0.44471 0,-0.27896 0.0889,-0.65494 0.44067,-0.65494 0.3679,0 0.43258,0.36385 0.43258,0.65494 0,0.29108 -0.0687,0.67515 -0.43662,0.67515 -0.17384,0 -0.283,-0.10107 -0.34769,-0.23044 z"
         style="font-style:normal;font-variant:normal;font-weight:bold;font-stretch:normal;font-size:4.04283333px;line-height:125%;font-family:'Frutiger Next Pro';-inkscape-font-specification:'Frutiger Next Pro, Bold';font-variant-ligatures:normal;font-variant-position:normal;font-variant-caps:normal;font-variant-numeric:normal;font-variant-alternates:normal;font-feature-settings:normal;text-indent:0;text-align:start;text-decoration:none;text-decoration-line:none;text-decoration-style:solid;text-decoration-color:#000000;letter-spacing:0px;word-spacing:0px;text-transform:none;writing-mode:lr-tb;direction:ltr;text-orientation:mixed;dominant-baseline:auto;text-anchor:start;white-space:normal;shape-padding:0;vector-effect:none;fill:#000000;fill-opacity:1;stroke:none;stroke-width:0.23324595px;stroke-linecap:butt;stroke-linejoin:miter;stroke-miterlimit:4;stroke-dasharray:none;stroke-dashoffset:0;stroke-opacity:1"
         id="path8367" />
      <path
         d="m 116.57101,168.44913 c 0.24662,0.0768 0.50536,0.10916 0.7641,0.10916 0.68324,0 1.08752,-0.35173 1.08752,-1.0471 v -1.90013 h -0.54174 v 0.33556 c -0.12533,-0.25874 -0.36385,-0.37599 -0.64281,-0.37599 -0.59834,0 -0.83282,0.50536 -0.83282,1.0471 0,0.51748 0.23448,1.02283 0.82474,1.02283 0.25874,0 0.49322,-0.12532 0.63472,-0.34768 v 0.21831 c 0,0.40833 -0.20214,0.66303 -0.65089,0.66303 -0.22236,0 -0.42855,-0.0485 -0.61856,-0.14959 z m 0.51344,-1.40691 c -0.0647,-0.12532 -0.0808,-0.27895 -0.0808,-0.42045 0,-0.29108 0.0647,-0.65898 0.43258,-0.65898 0.35173,0 0.44067,0.37598 0.44067,0.65898 0,0.27491 -0.097,0.63068 -0.44067,0.63068 -0.17788,0 -0.28704,-0.093 -0.35173,-0.21023 z"
         style="font-style:normal;font-variant:normal;font-weight:bold;font-stretch:normal;font-size:4.04283333px;line-height:125%;font-family:'Frutiger Next Pro';-inkscape-font-specification:'Frutiger Next Pro, Bold';font-variant-ligatures:normal;font-variant-position:normal;font-variant-caps:normal;font-variant-numeric:normal;font-variant-alternates:normal;font-feature-settings:normal;text-indent:0;text-align:start;text-decoration:none;text-decoration-line:none;text-decoration-style:solid;text-decoration-color:#000000;letter-spacing:0px;word-spacing:0px;text-transform:none;writing-mode:lr-tb;direction:ltr;text-orientation:mixed;dominant-baseline:auto;text-anchor:start;white-space:normal;shape-padding:0;vector-effect:none;fill:#000000;fill-opacity:1;stroke:none;stroke-width:0.23324595px;stroke-linecap:butt;stroke-linejoin:miter;stroke-miterlimit:4;stroke-dasharray:none;stroke-dashoffset:0;stroke-opacity:1"
         id="path8369" />
      <path
         d="m 120.11942,166.67433 v 0.0849 c 0,0.29917 -0.15767,0.57812 -0.49727,0.57812 -0.17384,0 -0.29917,-0.10107 -0.29917,-0.29917 0,-0.30321 0.35577,-0.36385 0.68324,-0.36385 z m 0.55791,0.96623 c -0.0162,-0.1415 -0.0202,-0.27087 -0.0202,-0.47705 v -0.80452 c 0,-0.5943 -0.39216,-0.78836 -0.93794,-0.78836 -0.2264,0 -0.48918,0.0485 -0.69941,0.13342 l 0.0243,0.37194 c 0.19001,-0.10107 0.41237,-0.15363 0.59429,-0.15363 0.30726,0 0.4811,0.10916 0.4811,0.3962 v 0.0687 c -0.0768,-0.004 -0.16575,-0.008 -0.24257,-0.008 -0.57004,0 -1.08752,0.14554 -1.08752,0.68324 0,0.40428 0.31534,0.6226 0.68728,0.6226 0.30726,0 0.52153,-0.12129 0.66303,-0.34365 l 0.0121,0.29917 z"
         style="font-style:normal;font-variant:normal;font-weight:bold;font-stretch:normal;font-size:4.04283333px;line-height:125%;font-family:'Frutiger Next Pro';-inkscape-font-specification:'Frutiger Next Pro, Bold';font-variant-ligatures:normal;font-variant-position:normal;font-variant-caps:normal;font-variant-numeric:normal;font-variant-alternates:normal;font-feature-settings:normal;text-indent:0;text-align:start;text-decoration:none;text-decoration-line:none;text-decoration-style:solid;text-decoration-color:#000000;letter-spacing:0px;word-spacing:0px;text-transform:none;writing-mode:lr-tb;direction:ltr;text-orientation:mixed;dominant-baseline:auto;text-anchor:start;white-space:normal;shape-padding:0;vector-effect:none;fill:#000000;fill-opacity:1;stroke:none;stroke-width:0.23324595px;stroke-linecap:butt;stroke-linejoin:miter;stroke-miterlimit:4;stroke-dasharray:none;stroke-dashoffset:0;stroke-opacity:1"
         id="path8371" />
      <path
         d="m 121.70756,167.64056 v -1.11986 c 0,-0.26683 0.0889,-0.54983 0.40428,-0.54983 0.30322,0 0.3396,0.24257 0.3396,0.48514 v 1.18455 h 0.55791 v -1.31392 c 0,-0.46492 -0.1981,-0.75601 -0.68728,-0.75601 -0.28704,0 -0.52557,0.12129 -0.65898,0.38003 l -0.008,-0.3396 h -0.52556 c 0.0162,0.14959 0.0202,0.30321 0.0202,0.4528 v 1.5767 z"
         style="font-style:normal;font-variant:normal;font-weight:bold;font-stretch:normal;font-size:4.04283333px;line-height:125%;font-family:'Frutiger Next Pro';-inkscape-font-specification:'Frutiger Next Pro, Bold';font-variant-ligatures:normal;font-variant-position:normal;font-variant-caps:normal;font-variant-numeric:normal;font-variant-alternates:normal;font-feature-settings:normal;text-indent:0;text-align:start;text-decoration:none;text-decoration-line:none;text-decoration-style:solid;text-decoration-color:#000000;letter-spacing:0px;word-spacing:0px;text-transform:none;writing-mode:lr-tb;direction:ltr;text-orientation:mixed;dominant-baseline:auto;text-anchor:start;white-space:normal;shape-padding:0;vector-effect:none;fill:#000000;fill-opacity:1;stroke:none;stroke-width:0.23324595px;stroke-linecap:butt;stroke-linejoin:miter;stroke-miterlimit:4;stroke-dasharray:none;stroke-dashoffset:0;stroke-opacity:1"
         id="path8373" />
      <path
         d="m 123.44168,167.58801 c 0.19406,0.0687 0.38407,0.097 0.61451,0.097 0.40833,0 0.849,-0.1698 0.849,-0.65899 0,-0.70345 -0.93794,-0.54982 -0.93794,-0.86921 0,-0.17384 0.19001,-0.20618 0.33151,-0.20618 0.17385,0 0.3396,0.0323 0.50132,0.097 l 0.0243,-0.40429 c -0.15767,-0.0445 -0.35981,-0.0768 -0.55791,-0.0768 -0.37194,0 -0.83687,0.16171 -0.83687,0.61855 0,0.65899 0.94603,0.53366 0.94603,0.88134 0,0.17384 -0.13746,0.23449 -0.35173,0.23449 -0.19001,0 -0.38002,-0.0445 -0.55791,-0.13746 z"
         style="font-style:normal;font-variant:normal;font-weight:bold;font-stretch:normal;font-size:4.04283333px;line-height:125%;font-family:'Frutiger Next Pro';-inkscape-font-specification:'Frutiger Next Pro, Bold';font-variant-ligatures:normal;font-variant-position:normal;font-variant-caps:normal;font-variant-numeric:normal;font-variant-alternates:normal;font-feature-settings:normal;text-indent:0;text-align:start;text-decoration:none;text-decoration-line:none;text-decoration-style:solid;text-decoration-color:#000000;letter-spacing:0px;word-spacing:0px;text-transform:none;writing-mode:lr-tb;direction:ltr;text-orientation:mixed;dominant-baseline:auto;text-anchor:start;white-space:normal;shape-padding:0;vector-effect:none;fill:#000000;fill-opacity:1;stroke:none;stroke-width:0.23324595px;stroke-linecap:butt;stroke-linejoin:miter;stroke-miterlimit:4;stroke-dasharray:none;stroke-dashoffset:0;stroke-opacity:1"
         id="path8375" />
      <path
         d="m 125.24201,167.58801 c 0.19405,0.0687 0.38407,0.097 0.61451,0.097 0.40832,0 0.84899,-0.1698 0.84899,-0.65899 0,-0.70345 -0.93793,-0.54982 -0.93793,-0.86921 0,-0.17384 0.19001,-0.20618 0.33151,-0.20618 0.17384,0 0.3396,0.0323 0.50131,0.097 l 0.0243,-0.40429 c -0.15767,-0.0445 -0.35982,-0.0768 -0.55791,-0.0768 -0.37194,0 -0.83687,0.16171 -0.83687,0.61855 0,0.65899 0.94602,0.53366 0.94602,0.88134 0,0.17384 -0.13745,0.23449 -0.35172,0.23449 -0.19002,0 -0.38003,-0.0445 -0.55792,-0.13746 z"
         style="font-style:normal;font-variant:normal;font-weight:bold;font-stretch:normal;font-size:4.04283333px;line-height:125%;font-family:'Frutiger Next Pro';-inkscape-font-specification:'Frutiger Next Pro, Bold';font-variant-ligatures:normal;font-variant-position:normal;font-variant-caps:normal;font-variant-numeric:normal;font-variant-alternates:normal;font-feature-settings:normal;text-indent:0;text-align:start;text-decoration:none;text-decoration-line:none;text-decoration-style:solid;text-decoration-color:#000000;letter-spacing:0px;word-spacing:0px;text-transform:none;writing-mode:lr-tb;direction:ltr;text-orientation:mixed;dominant-baseline:auto;text-anchor:start;white-space:normal;shape-padding:0;vector-effect:none;fill:#000000;fill-opacity:1;stroke:none;stroke-width:0.23324595px;stroke-linecap:butt;stroke-linejoin:miter;stroke-miterlimit:4;stroke-dasharray:none;stroke-dashoffset:0;stroke-opacity:1"
         id="path8377" />
      <path
         d="m 127.67706,167.64056 v -2.91488 h -0.55791 v 2.91488 z"
         style="font-style:normal;font-variant:normal;font-weight:bold;font-stretch:normal;font-size:4.04283333px;line-height:125%;font-family:'Frutiger Next Pro';-inkscape-font-specification:'Frutiger Next Pro, Bold';font-variant-ligatures:normal;font-variant-position:normal;font-variant-caps:normal;font-variant-numeric:normal;font-variant-alternates:normal;font-feature-settings:normal;text-indent:0;text-align:start;text-decoration:none;text-decoration-line:none;text-decoration-style:solid;text-decoration-color:#000000;letter-spacing:0px;word-spacing:0px;text-transform:none;writing-mode:lr-tb;direction:ltr;text-orientation:mixed;dominant-baseline:auto;text-anchor:start;white-space:normal;shape-padding:0;vector-effect:none;fill:#000000;fill-opacity:1;stroke:none;stroke-width:0.23324595px;stroke-linecap:butt;stroke-linejoin:miter;stroke-miterlimit:4;stroke-dasharray:none;stroke-dashoffset:0;stroke-opacity:1"
         id="path8379" />
      <path
         d="m 128.61367,166.43176 c 0.0121,-0.25874 0.15767,-0.52557 0.46492,-0.52557 0.30726,0 0.38812,0.27087 0.38812,0.52557 z m 1.35435,0.31534 v -0.13342 c 0,-0.61451 -0.24257,-1.04305 -0.89347,-1.04305 -0.59834,0 -1.00666,0.44471 -1.00666,1.0471 0,0.67515 0.40024,1.06731 1.14816,1.06731 0.22236,0 0.48514,-0.0485 0.64685,-0.11725 l -0.0242,-0.38811 c -0.1415,0.0809 -0.35982,0.13341 -0.55791,0.13341 -0.43259,0 -0.65494,-0.21427 -0.66707,-0.56599 z"
         style="font-style:normal;font-variant:normal;font-weight:bold;font-stretch:normal;font-size:4.04283333px;line-height:125%;font-family:'Frutiger Next Pro';-inkscape-font-specification:'Frutiger Next Pro, Bold';font-variant-ligatures:normal;font-variant-position:normal;font-variant-caps:normal;font-variant-numeric:normal;font-variant-alternates:normal;font-feature-settings:normal;text-indent:0;text-align:start;text-decoration:none;text-decoration-line:none;text-decoration-style:solid;text-decoration-color:#000000;letter-spacing:0px;word-spacing:0px;text-transform:none;writing-mode:lr-tb;direction:ltr;text-orientation:mixed;dominant-baseline:auto;text-anchor:start;white-space:normal;shape-padding:0;vector-effect:none;fill:#000000;fill-opacity:1;stroke:none;stroke-width:0.23324595px;stroke-linecap:butt;stroke-linejoin:miter;stroke-miterlimit:4;stroke-dasharray:none;stroke-dashoffset:0;stroke-opacity:1"
         id="path8381" />
    </g>
    <path
       id="path9485"
       d="m 113.14195,176.07347 c 0,-2.01791 -1.67182,-3.12161 -3.12161,-3.12161 -0.0472,0 -0.0947,0 -0.14195,0.004 a 2.2322299,2.2322299 0 0 0 -0.56792,-0.54737 2.1898786,2.1898786 0 0 1 0.17278,0.63013 1.1009285,1.1009285 0 0 0 -0.6068,-0.48232 2.1986481,2.1986481 0 0 1 0.26629,0.69666 1.0981479,1.0981479 0 0 0 1.00063,1.86969 3.1147698,3.1147698 0 0 1 -1.14628,2.2611 1.0979339,1.0979339 0 0 0 1.46456,-0.3398 1.0889501,1.0889501 0 0 1 -0.13732,0.49796 c 0.005,0 0.008,0 0.0138,0 a 1.097506,1.097506 0 0 0 1.07547,-0.88018 1.0953672,1.0953672 0 0 1 0.0188,0.49536 1.0983615,1.0983615 0 0 0 0.76189,-1.02498 2.2014287,2.2014287 0 0 1 0.47058,1.3625 2.2332997,2.2332997 0 0 1 -0.0155,0.26129 3.1059998,3.1059998 0 0 0 0.49195,-1.68167"
       class="cls-2"
       style="fill:#1a1a1a;stroke-width:0.02138984" />
    <path
       id="path24"
       style="fill:#1b1817;fill-opacity:1;fill-rule:evenodd;stroke:none;stroke-width:0.16601703"
       d="m 108.21692,182.5355 c 0,1.5051 1.20128,2.72545 2.6832,2.72545 1.18543,0 2.19112,-0.78093 2.54603,-1.86402 0.0245,-0.1364 -0.0583,-0.18609 -0.12954,-0.18609 -0.0634,0 -0.2326,0.001 -0.45627,0.004 0.16188,0.7582 -0.35923,0.91816 -0.35923,0.91816 -0.30989,0.12411 -0.39201,0.3026 -0.39201,0.3026 -0.16621,0.24757 -0.16296,-0.0188 -0.16296,-0.0188 0.0192,-0.27346 0.27631,-0.41748 0.27631,-0.41748 0.41003,-0.24313 0.29168,-0.63802 0.2229,-0.79331 -0.17362,-0.0248 -0.29209,-0.0951 -0.35842,-0.17309 -0.0676,0.60524 -0.29815,1.24158 -1.32617,1.24158 -0.29248,0 -0.53233,-0.10641 -0.72002,-0.28075 -0.0679,0.028 -0.34061,0.12141 -0.71008,-0.0266 0,0 -0.0721,-0.22896 0.27509,-0.74965 -0.0594,-0.21725 -0.089,-0.45061 -0.0901,-0.68234 0.001,-0.23139 0.0309,-0.4647 0.0901,-0.68239 -0.3475,-0.52039 -0.27509,-0.74878 -0.27509,-0.74878 0.36935,-0.14887 0.64221,-0.0551 0.71008,-0.0271 0.18772,-0.17471 0.42705,-0.28033 0.72002,-0.28033 1.03078,0 1.2576,0.63734 1.32402,1.24456 0.0826,-0.098 0.24637,-0.1853 0.49699,-0.1853 0.35842,0 0.64798,0.004 0.73598,0.004 0.0721,0 0.15574,-0.0493 0.129,-0.18731 -0.35562,-1.08225 -1.36061,-1.86254 -2.54563,-1.86254 -1.48195,0 -2.68321,1.22051 -2.68321,2.72591" />
  </g>
</svg>
