<?xml version="1.0" encoding="UTF-8" standalone="no"?>
<!-- Created with Inkscape (http://www.inkscape.org/) -->

<svg
   xmlns:dc="http://purl.org/dc/elements/1.1/"
   xmlns:cc="http://creativecommons.org/ns#"
   xmlns:rdf="http://www.w3.org/1999/02/22-rdf-syntax-ns#"
   xmlns:svg="http://www.w3.org/2000/svg"
   xmlns="http://www.w3.org/2000/svg"
   xmlns:sodipodi="http://sodipodi.sourceforge.net/DTD/sodipodi-0.dtd"
   xmlns:inkscape="http://www.inkscape.org/namespaces/inkscape"
   width="78.086021mm"
   height="5.5926433mm"
   viewBox="0 0 78.086021 5.5926433"
   version="1.1"
   id="svg1142"
   inkscape:version="0.92.2 2405546, 2018-03-11"
   sodipodi:docname="cc0-standalone.svg">
  <defs
     id="defs1136" />
  <sodipodi:namedview
     id="base"
     pagecolor="#ffffff"
     bordercolor="#666666"
     borderopacity="1.0"
     inkscape:pageopacity="0.0"
     inkscape:pageshadow="2"
     inkscape:zoom="1.4"
     inkscape:cx="131.08801"
     inkscape:cy="-52.193429"
     inkscape:document-units="mm"
     inkscape:current-layer="layer1"
     showgrid="false"
     fit-margin-top="0"
     fit-margin-left="0"
     fit-margin-right="0"
     fit-margin-bottom="0"
     inkscape:window-width="1920"
     inkscape:window-height="1028"
     inkscape:window-x="0"
     inkscape:window-y="0"
     inkscape:window-maximized="1" />
  <metadata
     id="metadata1139">
    <rdf:RDF>
      <cc:Work
         rdf:about="">
        <dc:format>image/svg+xml</dc:format>
        <dc:type
           rdf:resource="http://purl.org/dc/dcmitype/StillImage" />
        <dc:title></dc:title>
      </cc:Work>
    </rdf:RDF>
  </metadata>
  <g
     inkscape:label="Layer 1"
     inkscape:groupmode="layer"
     id="layer1"
     transform="translate(-63.766511,-99.167965)">
    <g
       aria-label="Copyright waived under CC-0 "
       style="font-style:normal;font-variant:normal;font-weight:normal;font-stretch:normal;font-size:47.77927017px;line-height:125%;font-family:'Frutiger Next Pro';-inkscape-font-specification:'Frutiger Next Pro';letter-spacing:0px;word-spacing:0px;overflow:visible;fill:#000000;fill-opacity:1;stroke:none;stroke-width:1.19448173px;stroke-linecap:butt;stroke-linejoin:miter;stroke-opacity:1"
       id="text4528"
       transform="matrix(0.26458333,0,0,0.26458333,63.514941,81.931725)">
      <path
         inkscape:connector-curvature="0"
         d="m 34.223879,79.303436 c -1.047959,0.512831 -2.207402,0.646613 -3.344549,0.646613 -3.745895,0 -5.864109,-2.497263 -5.864109,-6.15397 0,-3.500628 2.207402,-6.15397 5.886406,-6.15397 1.047959,0 2.318887,0.200673 3.277658,0.646613 l 0.133782,-1.583087 c -0.981068,-0.423643 -2.430372,-0.579722 -3.500628,-0.579722 -4.526289,0 -7.647868,3.233064 -7.647868,7.670166 0,4.637775 2.943203,7.670166 7.647868,7.670166 1.092553,0 2.564154,-0.156079 3.545222,-0.66891 z"
         style="font-size:22.29699326px;fill:#000000;fill-opacity:1;stroke-width:1.19448173px"
         id="path4596" />
      <path
         inkscape:connector-curvature="0"
         d="m 39.058843,81.020305 c 0.646612,0.289861 1.40471,0.44594 2.274293,0.44594 3.433737,0 5.195199,-2.631045 5.195199,-5.841813 0,-3.277658 -1.716868,-5.730327 -5.195199,-5.730327 -3.299955,0 -5.195199,2.541857 -5.195199,5.730327 0,2.430373 0.981067,4.459399 2.920906,5.395873 z m -0.379049,-2.341184 c -0.557425,-0.869583 -0.802692,-1.984433 -0.802692,-3.054689 0,-2.140511 1.003365,-4.37021 3.456034,-4.37021 2.497263,0 3.456034,2.140511 3.456034,4.37021 0,2.140512 -1.025662,4.481696 -3.456034,4.481696 -1.226335,0 -2.095917,-0.602019 -2.653342,-1.427007 z"
         style="font-size:22.29699326px;fill:#000000;fill-opacity:1;stroke-width:1.19448173px"
         id="path4598" />
      <path
         inkscape:connector-curvature="0"
         d="m 50.715291,86.037128 v -6.622207 c 0.557425,1.315523 1.939839,2.051324 3.389143,2.051324 3.299955,0 4.52629,-2.987797 4.52629,-5.841813 0,-2.943203 -1.11485,-5.730327 -4.503993,-5.730327 -1.471601,0 -2.920906,0.847286 -3.522925,2.162809 l -0.08919,-1.939839 h -1.538492 c 0.06689,1.248632 0.111485,2.408075 0.111485,3.723598 V 86.037128 Z M 51.31731,78.589933 C 50.849073,77.698053 50.6484,76.6055 50.6484,75.624432 c 0,-1.962135 0.824989,-4.347913 3.143877,-4.347913 2.51956,0 3.076985,2.29659 3.076985,4.347913 0,2.029027 -0.602019,4.459399 -3.076985,4.459399 -1.181741,0 -1.962136,-0.624316 -2.474967,-1.493898 z"
         style="font-size:22.29699326px;fill:#000000;fill-opacity:1;stroke-width:1.19448173px"
         id="path4600" />
      <path
         inkscape:connector-curvature="0"
         d="m 60.257708,86.104019 c 0.512831,0.111485 0.802692,0.178376 1.33782,0.178376 1.694571,0 2.586451,-1.40471 3.18847,-3.121579 l 4.459399,-13.043741 h -1.694572 l -2.9655,9.56541 -2.987797,-9.56541 h -1.761462 l 3.857379,11.482952 -0.22297,0.7358 c -0.245266,0.780395 -0.847285,2.564155 -2.07362,2.564155 -0.356752,0 -0.66891,-0.08919 -1.003365,-0.200673 z"
         style="font-size:22.29699326px;fill:#000000;fill-opacity:1;stroke-width:1.19448173px"
         id="path4602" />
      <path
         inkscape:connector-curvature="0"
         d="M 72.707445,81.220978 V 75.71362 c 0,-1.739165 0.490533,-4.236428 2.74253,-4.236428 0.289861,0 0.602019,0.04459 0.89188,0.133782 l 0.08919,-1.627681 c -0.334454,-0.08919 -0.602018,-0.08919 -0.936473,-0.08919 -1.360117,0 -2.51956,1.181741 -2.943203,2.318888 l -0.08919,-2.095918 H 70.96828 c 0.08919,0.869583 0.111485,1.739166 0.111485,2.608748 v 8.495155 z"
         style="font-size:22.29699326px;fill:#000000;fill-opacity:1;stroke-width:1.19448173px"
         id="path4604" />
      <path
         inkscape:connector-curvature="0"
         d="M 80.023645,67.642109 V 65.70227 h -1.627681 v 1.939839 z m 0,13.578869 V 70.117075 h -1.627681 v 11.103903 z"
         style="font-size:22.29699326px;fill:#000000;fill-opacity:1;stroke-width:1.19448173px"
         id="path4606" />
      <path
         inkscape:connector-curvature="0"
         d="m 83.496402,85.702673 c 1.137147,0.356752 2.296591,0.579722 3.456034,0.579722 3.63441,0 5.1952,-2.162808 5.1952,-5.618842 V 70.117075 h -1.538493 v 1.872948 c -0.713504,-1.427008 -1.895244,-2.095918 -3.478331,-2.095918 -3.277658,0 -4.526289,2.787124 -4.526289,5.730327 0,2.742531 1.18174,5.596546 4.481695,5.596546 1.404711,0 2.74253,-0.713504 3.433737,-1.962136 v 1.427008 c 0,2.408075 -1.003364,4.236429 -3.679004,4.236429 -1.137146,0 -2.229699,-0.289861 -3.210767,-0.802692 z m 1.449305,-7.246522 c -0.44594,-0.802692 -0.602019,-1.850651 -0.602019,-2.809422 0,-2.051323 0.602019,-4.37021 3.099282,-4.37021 2.296591,0 3.121579,2.430372 3.121579,4.37021 0,1.872948 -0.758098,4.191835 -3.143876,4.191835 -1.248631,0 -2.006729,-0.579722 -2.474966,-1.382413 z"
         style="font-size:22.29699326px;fill:#000000;fill-opacity:1;stroke-width:1.19448173px"
         id="path4608" />
      <path
         inkscape:connector-curvature="0"
         d="m 97.007684,81.220978 v -5.997891 c 0,-1.962136 0.735801,-3.946568 3.032396,-3.946568 2.14051,0 2.49726,1.583086 2.49726,3.344549 v 6.59991 h 1.60538 v -6.889771 c 0,-2.564154 -0.98107,-4.437102 -3.7013,-4.437102 -1.583085,0 -2.720232,0.691207 -3.433736,2.095918 v -6.845177 h -1.62768 v 16.076132 z"
         style="font-size:22.29699326px;fill:#000000;fill-opacity:1;stroke-width:1.19448173px"
         id="path4610" />
      <path
         inkscape:connector-curvature="0"
         d="m 112.52778,79.771673 c -0.42364,0.178376 -0.80269,0.289861 -1.24863,0.289861 -1.15944,0 -1.42701,-0.869583 -1.42701,-1.85065 v -6.82288 h 2.51956 v -1.270929 h -2.51956 v -3.054688 l -1.60538,0.557425 v 2.497263 h -2.09592 v 1.270929 h 2.09592 v 6.399237 c 0,2.029026 0.28986,3.679004 2.56415,3.679004 0.60202,0 1.24864,-0.08919 1.80606,-0.334455 z"
         style="font-size:22.29699326px;fill:#000000;fill-opacity:1;stroke-width:1.19448173px"
         id="path4612" />
      <path
         inkscape:connector-curvature="0"
         d="m 124.9162,81.220978 2.87631,-9.56541 2.83172,9.56541 h 1.98443 l 3.45604,-11.103903 h -1.56079 l -2.80943,9.587707 -2.87631,-9.587707 h -1.93984 l -2.87631,9.587707 -2.83172,-9.587707 h -1.73916 l 3.52292,11.103903 z"
         style="font-size:22.29699326px;fill:#000000;fill-opacity:1;stroke-width:1.19448173px"
         id="path4614" />
      <path
         inkscape:connector-curvature="0"
         d="m 144.10241,75.646729 v 0.66891 c 0,2.051324 -0.82499,3.835083 -3.18847,3.835083 -1.09255,0 -2.14051,-0.557425 -2.14051,-2.051323 0,-2.2297 2.43037,-2.45267 4.50399,-2.45267 z m 1.73917,5.574249 c -0.11149,-0.780395 -0.13378,-1.538493 -0.13378,-2.363482 v -4.81615 c 0,-2.787124 -1.24863,-4.147241 -4.03576,-4.147241 -1.04796,0 -2.38578,0.312158 -3.34455,0.780395 l 0.13378,1.449305 c 0.95877,-0.624316 2.00673,-0.936474 3.14388,-0.936474 1.85065,0 2.49726,1.047959 2.49726,2.74253 v 0.535128 h -1.24863 c -3.25536,0 -5.75262,0.847286 -5.75262,3.701301 0,2.251996 1.64997,3.299955 3.63441,3.299955 1.40471,0 2.80942,-0.602019 3.45603,-2.029027 l 0.0669,1.78376 z"
         style="font-size:22.29699326px;fill:#000000;fill-opacity:1;stroke-width:1.19448173px"
         id="path4616" />
      <path
         inkscape:connector-curvature="0"
         d="M 150.57272,67.642109 V 65.70227 h -1.62768 v 1.939839 z m 0,13.578869 V 70.117075 h -1.62768 v 11.103903 z"
         style="font-size:22.29699326px;fill:#000000;fill-opacity:1;stroke-width:1.19448173px"
         id="path4618" />
      <path
         inkscape:connector-curvature="0"
         d="m 158.08123,81.220978 3.7682,-11.103903 h -1.69458 l -2.98779,9.676895 -2.9655,-9.676895 h -1.76147 l 3.7236,11.103903 z"
         style="font-size:22.29699326px;fill:#000000;fill-opacity:1;stroke-width:1.19448173px"
         id="path4620" />
      <path
         inkscape:connector-curvature="0"
         d="m 164.68917,74.665662 c 0.0669,-1.583087 1.15944,-3.478331 3.27765,-3.478331 2.16281,0 2.72024,1.962135 2.83172,3.478331 z m 7.69246,1.204037 v -0.267564 c 0,-2.943203 -0.98107,-5.70803 -4.4371,-5.70803 -3.32226,0 -4.94994,2.898609 -4.94994,5.730327 0,3.322252 1.78376,5.841813 5.61885,5.841813 1.04796,0 2.16281,-0.245267 3.12158,-0.713504 l -0.0669,-1.449305 c -0.82498,0.535128 -1.98443,0.847286 -3.05468,0.847286 -2.78713,0 -3.92427,-2.140511 -3.92427,-4.281023 z"
         style="font-size:22.29699326px;fill:#000000;fill-opacity:1;stroke-width:1.19448173px"
         id="path4622" />
      <path
         inkscape:connector-curvature="0"
         d="m 183.62453,81.220978 c -0.0669,-1.159444 -0.11149,-2.296591 -0.11149,-3.522925 V 65.144846 h -1.62768 v 6.845177 c -0.55742,-1.315523 -1.93984,-2.095918 -3.34455,-2.095918 -3.32225,0 -4.57088,2.787124 -4.57088,5.730327 0,2.854016 1.22633,5.841813 4.52629,5.841813 1.53849,0 2.76483,-0.66891 3.47833,-2.095918 l 0.13378,1.850651 z m -7.29112,-2.586451 c -0.46824,-0.869583 -0.62432,-1.984433 -0.62432,-2.987798 0,-2.051323 0.55743,-4.37021 3.07699,-4.37021 2.31889,0 3.14388,2.430372 3.14388,4.37021 0,1.939839 -0.7581,4.437102 -3.12158,4.437102 -1.24864,0 -2.00673,-0.624316 -2.47497,-1.449304 z"
         style="font-size:22.29699326px;fill:#000000;fill-opacity:1;stroke-width:1.19448173px"
         id="path4624" />
      <path
         inkscape:connector-curvature="0"
         d="m 194.38179,70.117075 h -1.62768 v 6.867474 c 0,2.586451 0.86958,4.481696 3.7013,4.481696 1.62768,0 2.80942,-0.735801 3.58982,-2.162809 l 0.0446,1.917542 h 1.4939 c -0.0892,-0.869583 -0.11148,-1.739166 -0.11148,-2.608748 v -8.495155 h -1.60539 v 5.975594 c 0,1.962136 -0.7135,3.968865 -3.03239,3.968865 -2.11821,0 -2.45267,-1.605383 -2.45267,-3.366846 z"
         style="font-size:22.29699326px;fill:#000000;fill-opacity:1;stroke-width:1.19448173px"
         id="path4626" />
      <path
         inkscape:connector-curvature="0"
         d="m 206.35876,81.220978 v -5.975594 c 0,-1.962136 0.7135,-3.968865 3.03239,-3.968865 2.14051,0 2.49726,1.605383 2.49726,3.366846 v 6.577613 h 1.60539 v -6.889771 c 0,-2.564154 -0.86959,-4.437102 -3.7236,-4.437102 -1.60539,0 -2.80942,0.713504 -3.58982,2.140512 l -0.0669,-1.917542 h -1.4939 c 0.0892,0.869583 0.11149,1.739166 0.11149,2.608748 v 8.495155 z"
         style="font-size:22.29699326px;fill:#000000;fill-opacity:1;stroke-width:1.19448173px"
         id="path4628" />
      <path
         inkscape:connector-curvature="0"
         d="m 225.73624,81.220978 c -0.0669,-1.159444 -0.11149,-2.296591 -0.11149,-3.522925 V 65.144846 h -1.62768 v 6.845177 c -0.55742,-1.315523 -1.93984,-2.095918 -3.34455,-2.095918 -3.32225,0 -4.57088,2.787124 -4.57088,5.730327 0,2.854016 1.22633,5.841813 4.52629,5.841813 1.53849,0 2.76483,-0.66891 3.47833,-2.095918 l 0.13378,1.850651 z m -7.29112,-2.586451 c -0.46824,-0.869583 -0.62432,-1.984433 -0.62432,-2.987798 0,-2.051323 0.55743,-4.37021 3.07699,-4.37021 2.31889,0 3.14387,2.430372 3.14387,4.37021 0,1.939839 -0.75809,4.437102 -3.12157,4.437102 -1.24864,0 -2.00673,-0.624316 -2.47497,-1.449304 z"
         style="font-size:22.29699326px;fill:#000000;fill-opacity:1;stroke-width:1.19448173px"
         id="path4630" />
      <path
         inkscape:connector-curvature="0"
         d="m 229.83818,74.665662 c 0.0669,-1.583087 1.15945,-3.478331 3.27766,-3.478331 2.16281,0 2.72023,1.962135 2.83172,3.478331 z m 7.69247,1.204037 v -0.267564 c 0,-2.943203 -0.98107,-5.70803 -4.43711,-5.70803 -3.32225,0 -4.94993,2.898609 -4.94993,5.730327 0,3.322252 1.78376,5.841813 5.61884,5.841813 1.04796,0 2.16281,-0.245267 3.12158,-0.713504 l -0.0669,-1.449305 c -0.82499,0.535128 -1.98443,0.847286 -3.05469,0.847286 -2.78712,0 -3.92427,-2.140511 -3.92427,-4.281023 z"
         style="font-size:22.29699326px;fill:#000000;fill-opacity:1;stroke-width:1.19448173px"
         id="path4632" />
      <path
         inkscape:connector-curvature="0"
         d="M 241.41555,81.220978 V 75.71362 c 0,-1.739165 0.49054,-4.236428 2.74253,-4.236428 0.28986,0 0.60202,0.04459 0.89188,0.133782 l 0.0892,-1.627681 c -0.33446,-0.08919 -0.60202,-0.08919 -0.93647,-0.08919 -1.36012,0 -2.51956,1.181741 -2.94321,2.318888 l -0.0892,-2.095918 h -1.49389 c 0.0892,0.869583 0.11148,1.739166 0.11148,2.608748 v 8.495155 z"
         style="font-size:22.29699326px;fill:#000000;fill-opacity:1;stroke-width:1.19448173px"
         id="path4634" />
      <path
         inkscape:connector-curvature="0"
         d="m 263.72614,79.303436 c -1.04796,0.512831 -2.2074,0.646613 -3.34455,0.646613 -3.7459,0 -5.86411,-2.497263 -5.86411,-6.15397 0,-3.500628 2.2074,-6.15397 5.88641,-6.15397 1.04795,0 2.31888,0.200673 3.27765,0.646613 l 0.13379,-1.583087 c -0.98107,-0.423643 -2.43038,-0.579722 -3.50063,-0.579722 -4.52629,0 -7.64787,3.233064 -7.64787,7.670166 0,4.637775 2.9432,7.670166 7.64787,7.670166 1.09255,0 2.56415,-0.156079 3.54522,-0.66891 z"
         style="font-size:22.29699326px;fill:#000000;fill-opacity:1;stroke-width:1.19448173px"
         id="path4636" />
      <path
         inkscape:connector-curvature="0"
         d="m 276.87787,79.303436 c -1.04796,0.512831 -2.2074,0.646613 -3.34455,0.646613 -3.74589,0 -5.86411,-2.497263 -5.86411,-6.15397 0,-3.500628 2.2074,-6.15397 5.88641,-6.15397 1.04796,0 2.31889,0.200673 3.27766,0.646613 l 0.13378,-1.583087 c -0.98107,-0.423643 -2.43037,-0.579722 -3.50063,-0.579722 -4.52629,0 -7.64787,3.233064 -7.64787,7.670166 0,4.637775 2.94321,7.670166 7.64787,7.670166 1.09255,0 2.56416,-0.156079 3.54522,-0.66891 z"
         style="font-size:22.29699326px;fill:#000000;fill-opacity:1;stroke-width:1.19448173px"
         id="path4638" />
      <path
         inkscape:connector-curvature="0"
         d="m 284.09862,75.044711 v -1.471602 h -5.39587 v 1.471602 z"
         style="font-size:22.29699326px;fill:#000000;fill-opacity:1;stroke-width:1.19448173px"
         id="path4640" />
      <path
         inkscape:connector-curvature="0"
         d="m 288.43121,80.752741 c 0.66891,0.468237 1.53849,0.713504 2.58645,0.713504 4.14724,0 5.06142,-4.370211 5.06142,-7.670166 0,-3.277658 -0.93647,-7.670166 -5.06142,-7.670166 -4.10264,0 -5.03912,4.370211 -5.03912,7.670166 0,2.564154 0.44594,5.574248 2.45267,6.956662 z m -0.17837,-2.943203 c -0.42365,-1.270929 -0.46824,-2.831718 -0.46824,-4.013459 0,-2.318887 0.26756,-6.220861 3.23306,-6.220861 2.9655,0 3.25536,3.835083 3.25536,6.220861 0,2.318887 -0.28986,6.220861 -3.25536,6.220861 -1.51619,0 -2.31888,-0.958771 -2.76482,-2.207402 z"
         style="font-size:22.29699326px;fill:#000000;fill-opacity:1;stroke-width:1.19448173px"
         id="path4642" />
    </g>
    <circle
       style="overflow:visible;fill:#ffffff;stroke-width:0.07334992"
       cx="66.100891"
       cy="101.99168"
       r="2.2075393"
       id="circle4530" />
    <path
       style="overflow:visible;fill:#000000;fill-opacity:0.95544553;stroke-width:0.07334992"
       inkscape:connector-curvature="0"
       id="text2809_1_"
       d="m 66.113711,100.61322 c -0.77494,0 -0.96983,0.73123 -0.96983,1.35111 0,0.61995 0.19481,1.3511 0.96983,1.3511 0.77487,0 0.96976,-0.73115 0.96976,-1.3511 0,-0.61988 -0.19489,-1.35111 -0.96976,-1.35111 z m 0,0.50949 c 0.0315,0 0.0601,0.005 0.0871,0.0115 0.0558,0.0481 0.0831,0.1145 0.0296,0.20707 l -0.51609,0.94841 c -0.0159,-0.12 -0.0181,-0.23765 -0.0181,-0.32545 0,-0.27301 0.0189,-0.84155 0.41751,-0.84155 z m 0.38626,0.43724 c 0.0274,0.14553 0.0312,0.29751 0.0312,0.40438 0,0.27308 -0.0189,0.84169 -0.41736,0.84169 -0.0314,0 -0.0603,-0.003 -0.0871,-0.01 -0.005,-0.001 -0.01,-0.003 -0.0148,-0.005 -0.008,-0.002 -0.0169,-0.005 -0.0247,-0.008 -0.0888,-0.0378 -0.14464,-0.10607 -0.0641,-0.22687 z" />
    <path
       style="overflow:visible;fill:#000000;fill-opacity:0.97029706;stroke-width:0.07334992"
       inkscape:connector-curvature="0"
       id="path2815_1_"
       d="m 66.108801,99.617126 c -0.65113,0 -1.19993,0.22665 -1.647,0.682154 -0.22643,0.22644 -0.39925,0.48463 -0.51947,0.77253 -0.11736,0.28511 -0.17582,0.58232 -0.17582,0.89252 0,0.31305 0.0585,0.61027 0.17582,0.89252 0.11736,0.2824 0.28761,0.53633 0.51118,0.76255 0.22628,0.22364 0.48037,0.39601 0.76269,0.51616 0.28504,0.1175 0.58232,0.17589 0.8926,0.17589 0.31019,0 0.61173,-0.0606 0.90242,-0.18081 0.29061,-0.12022 0.54983,-0.29296 0.77905,-0.51939 0.22086,-0.21513 0.38795,-0.46188 0.49966,-0.74127 0.1145,-0.28218 0.17098,-0.58416 0.17098,-0.90565 0,-0.31856 -0.0565,-0.6201 -0.17091,-0.90243 -0.11457,-0.28496 -0.28225,-0.53692 -0.50296,-0.7577 -0.46122,-0.458294 -1.02162,-0.687074 -1.67824,-0.687074 z m 0.01,0.422424 c 0.5309,0 0.98376,0.18822 1.36093,0.56546 0.18169,0.18168 0.32091,0.38948 0.41589,0.62134 0.0951,0.23194 0.14296,0.4781 0.14296,0.73798 0,0.53941 -0.18455,0.98685 -0.55056,1.3445 -0.19012,0.18455 -0.40357,0.32619 -0.64108,0.42404 -0.23472,0.0978 -0.47663,0.14626 -0.72814,0.14626 -0.25438,0 -0.4979,-0.0479 -0.72976,-0.14289 -0.23201,-0.0979 -0.44018,-0.23751 -0.62465,-0.41927 -0.18448,-0.1844 -0.32677,-0.39264 -0.42734,-0.62464 -0.0978,-0.23465 -0.14794,-0.47663 -0.14794,-0.72815 0,-0.2543 0.0502,-0.49783 0.14794,-0.72976 0.10058,-0.23472 0.24295,-0.44553 0.42735,-0.63286 0.36602,-0.37431 0.81786,-0.56201 1.35441,-0.56201 z" />
  </g>
</svg>
