<?xml version="1.0" encoding="UTF-8" standalone="no"?>
<!-- Generator: Adobe Illustrator 13.0.2, SVG Export Plug-In . SVG Version: 6.00 Build 14948)  -->

<svg
   xmlns:dc="http://purl.org/dc/elements/1.1/"
   xmlns:cc="http://creativecommons.org/ns#"
   xmlns:rdf="http://www.w3.org/1999/02/22-rdf-syntax-ns#"
   xmlns:svg="http://www.w3.org/2000/svg"
   xmlns="http://www.w3.org/2000/svg"
   xmlns:sodipodi="http://sodipodi.sourceforge.net/DTD/sodipodi-0.dtd"
   xmlns:inkscape="http://www.inkscape.org/namespaces/inkscape"
   version="1.1"
   id="Layer_1"
   x="0px"
   y="0px"
   width="64px"
   height="64px"
   viewBox="-0.5 0.5 64 64"
   enable-background="new -0.5 0.5 64 64"
   xml:space="preserve"
   sodipodi:docname="zero-gray.svg"
   inkscape:version="0.92.4 5da689c313, 2019-01-14"><metadata
   id="metadata13"><rdf:RDF><cc:Work
       rdf:about=""><dc:format>image/svg+xml</dc:format><dc:type
         rdf:resource="http://purl.org/dc/dcmitype/StillImage" /><dc:title></dc:title></cc:Work></rdf:RDF></metadata><defs
   id="defs11">
	
	
	
</defs><sodipodi:namedview
   pagecolor="#ffffff"
   bordercolor="#666666"
   borderopacity="1"
   objecttolerance="10"
   gridtolerance="10"
   guidetolerance="10"
   inkscape:pageopacity="0"
   inkscape:pageshadow="2"
   inkscape:window-width="1920"
   inkscape:window-height="1055"
   id="namedview9"
   showgrid="false"
   inkscape:zoom="3.6875"
   inkscape:cx="-18.440678"
   inkscape:cy="32"
   inkscape:window-x="0"
   inkscape:window-y="0"
   inkscape:window-maximized="1"
   inkscape:current-layer="Layer_1" />
<circle
   style="fill:#ffffff"
   id="circle2"
   r="30.096001"
   cy="32.873001"
   cx="31.325001" /><path
   inkscape:connector-curvature="0"
   d="m 31.5,14.08 c -10.565,0 -13.222,9.969 -13.222,18.42 0,8.452 2.656,18.42 13.222,18.42 10.564,0 13.221,-9.968 13.221,-18.42 0,-8.451 -2.657,-18.42 -13.221,-18.42 z m 0,6.946 c 0.429,0 0.82,0.066 1.188,0.157 0.761,0.656 1.133,1.561 0.403,2.823 l -7.036,12.93 c -0.216,-1.636 -0.247,-3.24 -0.247,-4.437 0,-3.722 0.258,-11.473 5.692,-11.473 z m 5.266,5.961 c 0.373,1.984 0.426,4.056 0.426,5.513 0,3.723 -0.258,11.475 -5.69,11.475 -0.428,0 -0.822,-0.045 -1.188,-0.136 -0.07,-0.021 -0.134,-0.043 -0.202,-0.067 -0.112,-0.032 -0.23,-0.068 -0.336,-0.11 -1.21,-0.515 -1.972,-1.446 -0.874,-3.093 z"
   id="text2809_1_"
   style="stroke:none;stroke-opacity:1;fill:#7f7f7f;fill-opacity:1" /><path
   inkscape:connector-curvature="0"
   d="M 31.433,0.5 C 22.556,0.5 15.074,3.59 8.979,9.8 5.892,12.887 3.536,16.407 1.897,20.332 0.297,24.219 -0.5,28.271 -0.5,32.5 c 0,4.268 0.797,8.32 2.397,12.168 1.6,3.85 3.921,7.312 6.969,10.396 3.085,3.049 6.549,5.399 10.398,7.037 3.886,1.602 7.939,2.398 12.169,2.398 4.229,0 8.34,-0.826 12.303,-2.465 3.962,-1.639 7.496,-3.994 10.621,-7.081 3.011,-2.933 5.289,-6.297 6.812,-10.106 C 62.73,41 63.5,36.883 63.5,32.5 63.5,28.157 62.73,24.046 61.17,20.197 59.608,16.312 57.322,12.877 54.313,9.867 48.025,3.619 40.385,0.5 31.433,0.5 Z m 0.134,5.759 c 7.238,0 13.412,2.566 18.554,7.709 2.477,2.477 4.375,5.31 5.67,8.471 1.296,3.162 1.949,6.518 1.949,10.061 0,7.354 -2.516,13.454 -7.506,18.33 -2.592,2.516 -5.502,4.447 -8.74,5.781 -3.2,1.334 -6.498,1.994 -9.927,1.994 -3.468,0 -6.788,-0.653 -9.949,-1.948 C 18.455,55.323 15.617,53.419 13.102,50.941 10.587,48.427 8.647,45.588 7.276,42.425 5.943,39.226 5.259,35.927 5.259,32.498 c 0,-3.467 0.684,-6.787 2.017,-9.949 1.371,-3.2 3.312,-6.074 5.826,-8.628 4.99,-5.103 11.15,-7.662 18.465,-7.662 z"
   id="path2815_1_"
   style="stroke:#7f7f7f;stroke-opacity:1;fill:#7f7f7f;fill-opacity:1" />
</svg>